<svg
    version="1.1"
    id="Logo"
    xmlns="http://www.w3.org/2000/svg"
    x="0px"
    y="0px"
    viewBox="0 0 300 80"
    xmlSpace="preserve"
    height="50px"
    width="50px"
  >
    <g>
      <path d="M45,40.2c0,12.5-10.1,22.6-22.5,22.6S0,52.8,0,40.2s10.1-22.6,22.5-22.6S45,27.7,45,40.2" />
      <path d="M69.7,40.2c0,11.8-5,21.3-11.2,21.3c-6.2,0-11.2-9.5-11.2-21.3s5-21.3,11.2-21.3C64.6,18.9,69.7,28.5,69.7,40.2" />
      <path d="M79.7,40.2c0,10.5-1.8,19.1-4,19.1s-4-8.6-4-19.1s1.8-19.1,4-19.1C78,21.1,79.7,29.7,79.7,40.2" />
    </g>
  </svg>